<svg version="1.1" xmlns="http://www.w3.org/2000/svg" xmlns:xlink="http://www.w3.org/1999/xlink" width="778.5" height="568.5" viewBox="0,0,778.5,568.5"><g transform="translate(142.25,100.9375)"><g data-paper-data="{&quot;isPaintingLayer&quot;:true}" fill-rule="nonzero" stroke-linejoin="miter" stroke-miterlimit="10" stroke-dasharray="" stroke-dashoffset="0" style="mix-blend-mode: normal"><path d="M-58.5,388.8125v-411h581v411z" fill="#cccccc" stroke="#000000" stroke-width="7.5" stroke-linecap="butt"/><path d="M89.5,-58.1875l-228,162" fill="none" stroke="#525252" stroke-width="7.5" stroke-linecap="round"/><path d="M-127.5,178.8125l313,-221" fill="none" stroke="#525252" stroke-width="7.5" stroke-linecap="round"/><path d="M-100.5,290.8125l369,-332" fill="none" stroke="#525252" stroke-width="7.5" stroke-linecap="round"/><path d="M360.5,-65.1875l-470,451" fill="none" stroke="#525252" stroke-width="7.5" stroke-linecap="round"/><path d="M407.5,-54.1875l-468,504" fill="none" stroke="#525252" stroke-width="7.5" stroke-linecap="round"/><path d="M81.5,447.8125l398,-516" fill="none" stroke="#525252" stroke-width="7.5" stroke-linecap="round"/><path d="M555.5,-19.1875l-372,483" fill="none" stroke="#525252" stroke-width="7.5" stroke-linecap="round"/><path d="M566.5,86.8125l-237,359" fill="none" stroke="#525252" stroke-width="7.5" stroke-linecap="round"/><path d="M568.5,224.8125l-161,221" fill="none" stroke="#525252" stroke-width="7.5" stroke-linecap="round"/><path d="M354.5,-97.1875l250,161" fill="none" stroke="#525252" stroke-width="7.5" stroke-linecap="round"/><path d="M282.5,-58.1875l285,268" fill="none" stroke="#525252" stroke-width="7.5" stroke-linecap="round"/><path d="M188.5,-23.1875l415,360" fill="none" stroke="#525252" stroke-width="7.5" stroke-linecap="round"/><path d="M62.5,-37.1875l570,465" fill="none" stroke="#525252" stroke-width="7.5" stroke-linecap="round"/><path d="M541.5,457.8125l-610,-521" fill="none" stroke="#525252" stroke-width="7.5" stroke-linecap="round"/><path d="M-100.5,33.8125l476,403" fill="none" stroke="#525252" stroke-width="7.5" stroke-linecap="round"/><path d="M-103.5,149.8125l267,291" fill="none" stroke="#525252" stroke-width="7.5" stroke-linecap="round"/><path d="M-83.5,284.8125l118,137" fill="none" stroke="#525252" stroke-width="7.5" stroke-linecap="round"/><path d="M276.83333,350.8125v-331h192.66667v331z" fill-opacity="0.58871" fill="#b9b9b9" stroke="#525252" stroke-width="7.5" stroke-linecap="butt"/><text transform="translate(326.5,46.62387) scale(0.5967,0.63901)" font-size="40" xml:space="preserve" fill="#000000" fill-rule="nonzero" stroke="none" stroke-width="1" stroke-linecap="butt" stroke-linejoin="miter" stroke-miterlimit="10" stroke-dasharray="" stroke-dashoffset="0" font-family="Sans Serif" font-weight="normal" text-anchor="start" style="mix-blend-mode: normal"><tspan x="0" dy="0">メニュー</tspan></text><path d="M136.5,81.8125v-65h141v65z" fill-opacity="0.5722" fill="#bfbfbf" stroke="#525252" stroke-width="6" stroke-linecap="butt"/><text transform="translate(167.5,39.8125) scale(0.5,0.5)" font-size="40" xml:space="preserve" fill="#000000" fill-rule="nonzero" stroke="none" stroke-width="1" stroke-linecap="butt" stroke-linejoin="miter" stroke-miterlimit="10" stroke-dasharray="" stroke-dashoffset="0" font-family="Sans Serif" font-weight="normal" text-anchor="start" style="mix-blend-mode: normal"><tspan x="0" dy="0">世界記録</tspan></text></g></g></svg>